<svg id="e-file_icon" data-name="e-file icon" xmlns="http://www.w3.org/2000/svg" width="65.97" height="66" viewBox="0 0 65.97 66">
  <metadata><?xpacket begin="﻿" id="W5M0MpCehiHzreSzNTczkc9d"?>
<x:xmpmeta xmlns:x="adobe:ns:meta/" x:xmptk="Adobe XMP Core 5.6-c142 79.160924, 2017/07/13-01:06:39        ">
   <rdf:RDF xmlns:rdf="http://www.w3.org/1999/02/22-rdf-syntax-ns#">
      <rdf:Description rdf:about=""/>
   </rdf:RDF>
</x:xmpmeta>
                                                                                                    
                                                                                                    
                                                                                                    
                                                                                                    
                                                                                                    
                                                                                                    
                                                                                                    
                                                                                                    
                                                                                                    
                                                                                                    
                                                                                                    
                                                                                                    
                                                                                                    
                                                                                                    
                                                                                                    
                                                                                                    
                                                                                                    
                                                                                                    
                                                                                                    
                                                                                                    
                           
<?xpacket end="w"?></metadata>
<defs>
    <style>
      .cls-1 {
        fill: #fff;
      }

      .cls-2 {
        fill: #152f4e;
        fill-rule: evenodd;
      }
    </style>
  </defs>
  <circle class="cls-1" cx="32.985" cy="33" r="32.985"/>
  <path class="cls-2" d="M1103.21,1976.33a1.075,1.075,0,1,0,2.15,0v-16.5a1.084,1.084,0,0,0-1.08-1.09H1071.7a1.082,1.082,0,0,0-1.07,1.09v16.5a1.075,1.075,0,1,0,2.15,0v-15.4h30.43v15.4Zm8.81,3.9h-1.98v-22.94a3.282,3.282,0,0,0-3.26-3.3H1069.2a3.28,3.28,0,0,0-3.25,3.3v22.94h-1.98a0.973,0.973,0,0,0-.97.98v1.93a4.814,4.814,0,0,0,4.78,4.85h40.43a4.821,4.821,0,0,0,4.78-4.85v-1.93A0.98,0.98,0,0,0,1112.02,1980.23Zm-43.92-22.94a1.105,1.105,0,0,1,1.1-1.11h37.58a1.114,1.114,0,0,1,1.11,1.11v22.94h-14.57a1.492,1.492,0,0,0-.21.02,0.975,0.975,0,0,0-.79.96,1.5,1.5,0,0,1-1.48,1.51h-5.7a1.5,1.5,0,0,1-1.48-1.51,0.977,0.977,0,0,0-.99-0.98H1068.1v-22.94Zm42.95,25.85a2.868,2.868,0,0,1-2.84,2.89h-40.43a2.877,2.877,0,0,1-2.85-2.89v-0.94h16.93a3.444,3.444,0,0,0,3.28,2.49h5.7a3.444,3.444,0,0,0,3.28-2.49h16.93v0.94Zm-19.4-16.51-0.14,7.93,1.79-1.7,1.01,2.61,1.3-.52-1.02-2.63h2.51Z" transform="translate(-1055.22 -1938)"/>
</svg>
