<svg id="foreclosures_icon" data-name="foreclosures icon" xmlns="http://www.w3.org/2000/svg" width="69.43" height="66" viewBox="0 0 69.43 66">
  <metadata><?xpacket begin="﻿" id="W5M0MpCehiHzreSzNTczkc9d"?>
<x:xmpmeta xmlns:x="adobe:ns:meta/" x:xmptk="Adobe XMP Core 5.6-c142 79.160924, 2017/07/13-01:06:39        ">
   <rdf:RDF xmlns:rdf="http://www.w3.org/1999/02/22-rdf-syntax-ns#">
      <rdf:Description rdf:about=""/>
   </rdf:RDF>
</x:xmpmeta>
                                                                                                    
                                                                                                    
                                                                                                    
                                                                                                    
                                                                                                    
                                                                                                    
                                                                                                    
                                                                                                    
                                                                                                    
                                                                                                    
                                                                                                    
                                                                                                    
                                                                                                    
                                                                                                    
                                                                                                    
                                                                                                    
                                                                                                    
                                                                                                    
                                                                                                    
                                                                                                    
                           
<?xpacket end="w"?></metadata>
<defs>
    <style>
      .cls-1 {
        fill: #fff;
      }

      .cls-2 {
        fill: #627932;
        fill-rule: evenodd;
      }
    </style>
  </defs>
  <circle class="cls-1" cx="33.045" cy="33" r="33.045"/>
  <path class="cls-2" d="M1572.37,1774.82h-0.44a1.14,1.14,0,0,0,0,2.28h28.34a1.14,1.14,0,1,0,0-2.28h-0.44v-2.03a4.3,4.3,0,0,0-4.28-4.31h-18.9a4.3,4.3,0,0,0-4.28,4.31v2.03Zm2.27-2.03a2.021,2.021,0,0,1,2.01-2.03h18.9a2.029,2.029,0,0,1,2.02,2.03v2.03h-22.93v-2.03Zm43.38-15.42a4.307,4.307,0,0,0,1.57-8.47l-23.65-4.45,0.74-3.99,1.98,0.38a1.142,1.142,0,0,0,1.32-.91l0.87-4.68a1.144,1.144,0,0,0-.91-1.33l-15.48-2.91a1.147,1.147,0,0,0-1.32.91l-0.86,4.68a1.137,1.137,0,0,0,.9,1.33l1.98,0.37-3.05,16.46-1.98-.38a1.174,1.174,0,0,0-.85.19,1.135,1.135,0,0,0-.47.73l-0.87,4.67a1.139,1.139,0,0,0,.91,1.33l15.48,2.91a1.122,1.122,0,0,0,.85-0.18,1.175,1.175,0,0,0,.47-0.73l0.87-4.68a1.157,1.157,0,0,0-.91-1.33l-1.98-.37,0.74-3.99Zm1.16-6.23a2.04,2.04,0,0,1,1.61,2.37,2.017,2.017,0,0,1-2.35,1.62l-23.66-4.44,0.74-3.99Zm-25.1,8.19-0.45,2.43-13.25-2.49,0.45-2.43Zm-9.74-4.15,3.05-16.46,7.06,1.33-3.05,16.45Zm0.37-19.28,0.45-2.44,13.25,2.49-0.45,2.44Z" transform="translate(-1553.66 -1722)"/>
</svg>
