<svg id="form_icon" data-name="form icon" xmlns="http://www.w3.org/2000/svg" width="65.94" height="66" viewBox="0 0 65.94 66">
  <metadata><?xpacket begin="﻿" id="W5M0MpCehiHzreSzNTczkc9d"?>
<x:xmpmeta xmlns:x="adobe:ns:meta/" x:xmptk="Adobe XMP Core 5.6-c142 79.160924, 2017/07/13-01:06:39        ">
   <rdf:RDF xmlns:rdf="http://www.w3.org/1999/02/22-rdf-syntax-ns#">
      <rdf:Description rdf:about=""/>
   </rdf:RDF>
</x:xmpmeta>
                                                                                                    
                                                                                                    
                                                                                                    
                                                                                                    
                                                                                                    
                                                                                                    
                                                                                                    
                                                                                                    
                                                                                                    
                                                                                                    
                                                                                                    
                                                                                                    
                                                                                                    
                                                                                                    
                                                                                                    
                                                                                                    
                                                                                                    
                                                                                                    
                                                                                                    
                                                                                                    
                           
<?xpacket end="w"?></metadata>
<defs>
    <style>
      .cls-1 {
        fill: #fff;
      }

      .cls-2 {
        fill: #3678c5;
        fill-rule: evenodd;
      }
    </style>
  </defs>
  <ellipse class="cls-1" cx="32.97" cy="33" rx="32.97" ry="33"/>
  <path class="cls-2" d="M1845.16,1742.29h-19.49a0.94,0.94,0,0,1,0-1.88h19.49A0.94,0.94,0,0,1,1845.16,1742.29Zm0,6.06h-19.49a0.94,0.94,0,0,1,0-1.88h19.49A0.94,0.94,0,1,1,1845.16,1748.35Zm-9.43,18.19h-10.06a0.94,0.94,0,0,1,0-1.88h9.83A3.545,3.545,0,0,0,1835.73,1766.54Zm3.51-.63a0.56,0.56,0,0,1-.68-0.68c0.41-1.66,1.35-5.13,2.26-6.05l16.84-16.88a3.126,3.126,0,0,1,4.42,0h0a3.138,3.138,0,0,1,0,4.43l-16.84,16.88C1844.33,1764.53,1840.89,1765.49,1839.24,1765.91Zm10.76-2.79v12.89h-29V1736h29v9.75l1.87-1.87v-8.12a1.647,1.647,0,0,0-1.64-1.64h-29.47a1.639,1.639,0,0,0-1.63,1.64v40.49a1.639,1.639,0,0,0,1.63,1.64h29.47a1.647,1.647,0,0,0,1.64-1.64v-15Zm-6.77-10.58h-17.56a0.935,0.935,0,0,0,0,1.87h15.69Zm-5.67,6.06h-11.89a0.935,0.935,0,0,0,0,1.87h11.08A16.864,16.864,0,0,1,1837.56,1758.6Z" transform="translate(-1803 -1722)"/>
</svg>
