<svg id="pay_online_icon" data-name="pay online icon" xmlns="http://www.w3.org/2000/svg" width="66.25" height="66" viewBox="0 0 66.25 66">
  <metadata><?xpacket begin="﻿" id="W5M0MpCehiHzreSzNTczkc9d"?>
<x:xmpmeta xmlns:x="adobe:ns:meta/" x:xmptk="Adobe XMP Core 5.6-c142 79.160924, 2017/07/13-01:06:39        ">
   <rdf:RDF xmlns:rdf="http://www.w3.org/1999/02/22-rdf-syntax-ns#">
      <rdf:Description rdf:about=""/>
   </rdf:RDF>
</x:xmpmeta>
                                                                                                    
                                                                                                    
                                                                                                    
                                                                                                    
                                                                                                    
                                                                                                    
                                                                                                    
                                                                                                    
                                                                                                    
                                                                                                    
                                                                                                    
                                                                                                    
                                                                                                    
                                                                                                    
                                                                                                    
                                                                                                    
                                                                                                    
                                                                                                    
                                                                                                    
                                                                                                    
                           
<?xpacket end="w"?></metadata>
<defs>
    <style>
      .cls-1 {
        fill: #fff;
      }

      .cls-1, .cls-2 {
        fill-rule: evenodd;
      }

      .cls-2 {
        fill: #3f824a;
      }
    </style>
  </defs>
  <path class="cls-1" d="M1338.06,1938a33,33,0,1,1-33.12,33A33.06,33.06,0,0,1,1338.06,1938Z" transform="translate(-1304.94 -1938)"/>
  <path class="cls-2" d="M1360.82,1969.6l-4.87-4.88v-4.37a4.385,4.385,0,0,0-4.36-4.37h-32.23a4.4,4.4,0,0,0-4.37,4.37v17.74a4.347,4.347,0,0,0,3.71,4.29l2.96,7.68a4.368,4.368,0,0,0,5.64,2.51l18.24-7.03a12.062,12.062,0,0,0,1.27,9.95l0.41,0.66v5.71a1.139,1.139,0,0,0,1.14,1.14h14.51a1.139,1.139,0,0,0,1.14-1.14v-24.59A10.84,10.84,0,0,0,1360.82,1969.6Zm0.9,27.36v3.75h-12.21v-3.75h12.21Zm-13.32-14-6.6-7.21a2.349,2.349,0,0,1,3.39-3.25l13.08,13.08,1.61-1.61-2.85-2.86,0.35-.14a4.371,4.371,0,0,0,2.5-5.64l-2.16-5.6,1.49,1.49a8.545,8.545,0,0,1,2.51,6.05v17.41H1349l-0.25-.4a9.714,9.714,0,0,1-.2-9.98A1.133,1.133,0,0,0,1348.4,1982.96Zm5.27-17.4v12.19l-6.87-6.87a4.631,4.631,0,0,0-6.68,6.41l2.63,2.88h-23.39a2.085,2.085,0,0,1-2.08-2.08v-17.74a2.078,2.078,0,0,1,2.08-2.08h32.23a2.085,2.085,0,0,1,2.08,2.08v4.8l-0.16.01Zm2.16,13.56a4.4,4.4,0,0,0,.12-1.03v-6.6l1.8,4.66a2.089,2.089,0,0,1-1.2,2.69Zm-24.02,3.33h13.03l0.61,0.67-18.97,7.31a2.086,2.086,0,0,1-2.69-1.19l-1.24-3.22Zm-6.36,0-3.72,1.44-0.55-1.44h4.27Zm-0.93-14.51a2.433,2.433,0,0,0,2.43-2.43v-3.87a2.433,2.433,0,0,0-2.43-2.43h-3.87a2.433,2.433,0,0,0-2.43,2.43v3.87a2.433,2.433,0,0,0,2.43,2.43h3.87Zm-4.02-5.51v-0.79a0.154,0.154,0,0,1,.15-0.15h3.87a0.145,0.145,0,0,1,.14.15v0.79h-1.61v2.29h1.61v0.79a0.145,0.145,0,0,1-.14.15h-3.87a0.154,0.154,0,0,1-.15-0.15v-0.79h1.61v-2.29h-1.61Zm-1.48,9.54h3.9v-2.28h-3.9v2.28Zm0,4.84h3.9v-2.29h-3.9v2.29Zm14.51,0h3.89v-2.29h-3.89v2.29Zm-9.67-4.84h3.89v-2.28h-3.89v2.28Zm4.83,0h3.9v-2.28h-3.9v2.28Zm4.84,0h3.89v-2.28h-3.89v2.28Zm15.3-8.86h2.29v-3.1h-2.29v3.1Zm-3.22,0h2.29v-3.1h-2.29v3.1Zm-3.22,0h2.28v-3.1h-2.28v3.1Zm-3.23,0h2.29v-3.1h-2.29v3.1Z" transform="translate(-1304.94 -1938)"/>
</svg>
