<svg id="records_search_icon" data-name="records search icon" xmlns="http://www.w3.org/2000/svg" width="65.97" height="66" viewBox="0 0 65.97 66">
  <metadata><?xpacket begin="﻿" id="W5M0MpCehiHzreSzNTczkc9d"?>
<x:xmpmeta xmlns:x="adobe:ns:meta/" x:xmptk="Adobe XMP Core 5.6-c142 79.160924, 2017/07/13-01:06:39        ">
   <rdf:RDF xmlns:rdf="http://www.w3.org/1999/02/22-rdf-syntax-ns#">
      <rdf:Description rdf:about=""/>
   </rdf:RDF>
</x:xmpmeta>
                                                                                                    
                                                                                                    
                                                                                                    
                                                                                                    
                                                                                                    
                                                                                                    
                                                                                                    
                                                                                                    
                                                                                                    
                                                                                                    
                                                                                                    
                                                                                                    
                                                                                                    
                                                                                                    
                                                                                                    
                                                                                                    
                                                                                                    
                                                                                                    
                                                                                                    
                                                                                                    
                           
<?xpacket end="w"?></metadata>
<defs>
    <style>
      .cls-1 {
        fill: #fff;
      }

      .cls-2 {
        fill: #452f4a;
        fill-rule: evenodd;
      }
    </style>
  </defs>
  <circle class="cls-1" cx="32.985" cy="33" r="32.985"/>
  <path class="cls-2" d="M1109.62,1756.02a11.393,11.393,0,1,0-22.78-.48c0,0.1,0,.2.01,0.31h-0.01c0,0.03.01,0.06,0.01,0.1,0,0.32.02,0.64,0.05,0.96,0.01,0.17.04,0.34,0.06,0.51s0.05,0.37.09,0.55c0.01,0.06.02,0.13,0.03,0.19h0.01a11.183,11.183,0,0,0,.55,1.84h-0.03a11.432,11.432,0,0,0,1.23,2.32h0.05a11.471,11.471,0,0,0,4.28,3.72h-0.14a11.321,11.321,0,0,0,4.52,1.25,0.163,0.163,0,0,0,0-.07c0.15,0.01.29,0.03,0.44,0.03a11.231,11.231,0,0,0,3.9-.62v0.07a11.53,11.53,0,0,0,2.76-1.39v-0.07a11.473,11.473,0,0,0,4.97-9.22h0Zm-11.57,8.35a8.548,8.548,0,0,1-8.15-6.76c-0.03-.13-0.06-0.26-0.08-0.38-0.02-.14-0.04-0.28-0.05-0.42a9.056,9.056,0,0,1-.07-0.91c0-.11-0.01-0.2,0-0.3a7.611,7.611,0,0,1,.11-1.18h0.01a8.62,8.62,0,0,1,.74-2.32h-0.04a8.547,8.547,0,0,1,7.89-4.92,8.651,8.651,0,0,1,3.48.84v0.07a8.677,8.677,0,0,1,2.76,2.12v-0.07a8.59,8.59,0,0,1-6.6,14.23h0Zm17.47,10.09h0a1.763,1.763,0,0,1-2.51-.05l-6.1-6.41a1.8,1.8,0,0,1,.05-2.54h0a1.784,1.784,0,0,1,2.52.05l6.1,6.41A1.808,1.808,0,0,1,1115.52,1774.46Zm-29.76-29.74h-5.95a1.164,1.164,0,0,1,0-2.32h5.95a1.164,1.164,0,0,1,0,2.32h0Zm-5.95,3.75a1.164,1.164,0,0,1,0-2.32h5.95a1.164,1.164,0,0,1,0,2.32h-5.95Zm24.84,11.27a6.321,6.321,0,0,1-1.99,2.26v-12.3a8.351,8.351,0,0,1,1.99,2.1v7.94Zm-8.16,2.58h-2.13a7.594,7.594,0,0,1-2.4-2.32h4.53a1.164,1.164,0,0,1,0,2.32h0Zm-16.99-2.31h7.03a11.878,11.878,0,0,0,1.09,2.31h-8.12a1.158,1.158,0,0,1,0-2.31h0Zm16.99-1.85h-5.41a7.7,7.7,0,0,1-.36-2.31h5.77a1.158,1.158,0,0,1,0,2.31h0Zm-16.99-2.31h6.32a12.643,12.643,0,0,0,.21,2.31h-6.53a1.158,1.158,0,0,1,0-2.31h0Zm16.99-1.43h-5.63a7.442,7.442,0,0,1,.86-2.32h4.77a1.164,1.164,0,0,1,0,2.32h0Zm-16.99-2.32h6.89a12.75,12.75,0,0,0-.49,2.32h-6.4a1.164,1.164,0,0,1,0-2.32h0Zm11.04,16.26a1.164,1.164,0,0,1,0-2.32h0.51a12.093,12.093,0,0,0,5.85,2.23,1.031,1.031,0,0,1-.41.09h-5.95Zm0,0,12.13-1.13a9.686,9.686,0,0,0,2.21-1.03v9.61a1.065,1.065,0,0,1-1.06,1.08h-30.67a1.073,1.073,0,0,1-1.07-1.08v-41.62a1.071,1.071,0,0,1,1.07-1.07h25.76a2.991,2.991,0,0,1,2.1.86l2.96,2.88a3.064,3.064,0,0,1,.91,2.18v6.42a9.791,9.791,0,0,0-2.21-1v-5.58h-3.68v-3.54h-24.7v39.32h28.38v-7.43Z" transform="translate(-1055.22 -1722)"/>
</svg>
